o MiningMesh
v 430000 27722.3 -950 0.508235 0.76 0.863529
v 430118 27746.7 -950 0.508235 0.76 0.863529
v 430298 27773.3 -950 0.508235 0.76 0.863529
v 430364 27781.7 -950 0.508235 0.76 0.863529
v 430364 27781.7 -950 0.508235 0.76 0.863529
v 430460 27792.9 -950 0.508235 0.76 0.863529
v 430531 27800.3 -950 0.508235 0.76 0.863529
v 430602 27809.3 -950 0.508235 0.76 0.863529
v 430646 27815.6 -950 0.508235 0.76 0.863529
v 430682 27821.4 -950 0.508235 0.76 0.863529
v 430812 27850.1 -950 0.508235 0.76 0.863529
v 430912 27870.4 -950 0.508235 0.76 0.863529
v 431025 27888.4 -950 0.508235 0.76 0.863529
v 431080 27897 -950 0.508235 0.76 0.863529
v 431111 27901.4 -950 0.508235 0.76 0.863529
v 431142 27904.5 -950 0.508235 0.76 0.863529
v 431176 27905.9 -950 0.508235 0.76 0.863529
v 431228 27904.3 -950 0.508235 0.76 0.863529
v 430000 27704.1 -900 0.508235 0.76 0.863529
v 430042 27714.7 -900 0.508235 0.76 0.863529
v 430261 27752.8 -900 0.508235 0.76 0.863529
v 430305 27758.7 -900 0.508235 0.76 0.863529
v 430308 27759.1 -900 0.508235 0.76 0.863529
v 430398 27769.8 -900 0.508235 0.76 0.863529
v 430528 27783.3 -900 0.508235 0.76 0.863529
v 430603 27790.6 -900 0.508235 0.76 0.863529
v 430631 27794.4 -900 0.508235 0.76 0.863529
v 430659 27798.2 -900 0.508235 0.76 0.863529
v 430688 27803.7 -900 0.508235 0.76 0.863529
v 430813 27831.4 -900 0.508235 0.76 0.863529
v 430913 27851.7 -900 0.508235 0.76 0.863529
v 431016 27869.2 -900 0.508235 0.76 0.863529
v 431062 27876.2 -900 0.508235 0.76 0.863529
v 431101 27881.5 -900 0.508235 0.76 0.863529
v 431143 27886.1 -900 0.508235 0.76 0.863529
v 431176 27887.3 -900 0.508235 0.76 0.863529
v 431247 27889.7 -900 0.508235 0.76 0.863529
v 430000 27691.3 -850 0.508235 0.76 0.863529
v 430133 27716.1 -850 0.508235 0.76 0.863529
v 430245 27733.5 -850 0.508235 0.76 0.863529
v 430245 27733.5 -850 0.508235 0.76 0.863529
v 430320 27744.8 -850 0.508235 0.76 0.863529
v 430379 27752 -850 0.508235 0.76 0.863529
v 430431 27757.1 -850 0.508235 0.76 0.863529
v 430520 27763.4 -850 0.508235 0.76 0.863529
v 430528 27764.5 -850 0.508235 0.76 0.863529
v 430603 27772.3 -850 0.508235 0.76 0.863529
v 430647 27778.6 -850 0.508235 0.76 0.863529
v 430700 27788.4 -850 0.508235 0.76 0.863529
v 430813 27813.1 -850 0.508235 0.76 0.863529
v 430913 27833.4 -850 0.508235 0.76 0.863529
v 431026 27851.4 -850 0.508235 0.76 0.863529
v 431100 27861.7 -850 0.508235 0.76 0.863529
v 431176 27869 -850 0.508235 0.76 0.863529
v 431228 27872.2 -850 0.508235 0.76 0.863529
v 431266 27874.2 -850 0.508235 0.76 0.863529
v 430000 27652.5 -800 0.508235 0.76 0.863529
v 430110 27689.7 -800 0.508235 0.76 0.863529
v 430193 27705.5 -800 0.508235 0.76 0.863529
v 430194 27705.7 -800 0.508235 0.76 0.863529
v 430226 27712.5 -800 0.508235 0.76 0.863529
v 430283 27722.4 -800 0.508235 0.76 0.863529
v 430343 27730.4 -800 0.508235 0.76 0.863529
v 430415 27737.1 -800 0.508235 0.76 0.863529
v 430528 27745.8 -800 0.508235 0.76 0.863529
v 430603 27755 -800 0.508235 0.76 0.863529
v 430647 27761.3 -800 0.508235 0.76 0.863529
v 430696 27769.4 -800 0.508235 0.76 0.863529
v 430813 27795.8 -800 0.508235 0.76 0.863529
v 430913 27816.1 -800 0.508235 0.76 0.863529
v 431027 27834.1 -800 0.508235 0.76 0.863529
v 431087 27842.4 -800 0.508235 0.76 0.863529
v 431153 27849.5 -800 0.508235 0.76 0.863529
v 431226 27854.6 -800 0.508235 0.76 0.863529
v 431285 27859.1 -800 0.508235 0.76 0.863529
v 430000 27620 -750 0.508235 0.76 0.863529
v 430221 27690.8 -750 0.508235 0.76 0.863529
v 430221 27690.8 -750 0.508235 0.76 0.863529
v 430249 27697.1 -750 0.508235 0.76 0.863529
v 430287 27703.1 -750 0.508235 0.76 0.863529
v 430397 27714.6 -750 0.508235 0.76 0.863529
v 430453 27720.3 -750 0.508235 0.76 0.863529
v 430520 27727.8 -750 0.508235 0.76 0.863529
v 430580 27734.7 -750 0.508235 0.76 0.863529
v 430624 27741 -750 0.508235 0.76 0.863529
v 430679 27751.2 -750 0.508235 0.76 0.863529
v 430790 27775.5 -750 0.508235 0.76 0.863529
v 430890 27795.8 -750 0.508235 0.76 0.863529
v 430994 27813 -750 0.508235 0.76 0.863529
v 431070 27824.4 -750 0.508235 0.76 0.863529
v 431153 27831.4 -750 0.508235 0.76 0.863529
v 431221 27835.5 -750 0.508235 0.76 0.863529
v 431307 27842.4 -750 0.508235 0.76 0.863529
v 430000 27585.8 -700 0.508235 0.76 0.863529
v 430231 27659 -700 0.508235 0.76 0.863529
v 430268 27669.9 -700 0.508235 0.76 0.863529
v 430272 27670.9 -700 0.508235 0.76 0.863529
v 430288 27675.7 -700 0.508235 0.76 0.863529
v 430330 27684.8 -700 0.508235 0.76 0.863529
v 430367 27691.1 -700 0.508235 0.76 0.863529
v 430403 27695.5 -700 0.508235 0.76 0.863529
v 430435 27699.4 -700 0.508235 0.76 0.863529
v 430499 27706.6 -700 0.508235 0.76 0.863529
v 430519 27709.1 -700 0.508235 0.76 0.863529
v 430540 27711.6 -700 0.508235 0.76 0.863529
v 430606 27720.5 -700 0.508235 0.76 0.863529
v 430645 27726.5 -700 0.508235 0.76 0.863529
v 430694 27735.6 -700 0.508235 0.76 0.863529
v 430816 27761.3 -700 0.508235 0.76 0.863529
v 430915 27781.6 -700 0.508235 0.76 0.863529
v 430986 27794.7 -700 0.508235 0.76 0.863529
v 431051 27804.7 -700 0.508235 0.76 0.863529
v 431093 27810.1 -700 0.508235 0.76 0.863529
v 431130 27814 -700 0.508235 0.76 0.863529
v 431179 27817.2 -700 0.508235 0.76 0.863529
v 431260 27822.1 -700 0.508235 0.76 0.863529
v 431325 27827.7 -700 0.508235 0.76 0.863529
v 430000 27551.6 -650 0.508235 0.76 0.863529
v 430243 27629.1 -650 0.508235 0.76 0.863529
v 430314 27648.4 -650 0.508235 0.76 0.863529
v 430314 27648.4 -650 0.508235 0.76 0.863529
v 430340 27655.3 -650 0.508235 0.76 0.863529
v 430409 27671.7 -650 0.508235 0.76 0.863529
v 430475 27683 -650 0.508235 0.76 0.863529
v 430503 27687.3 -650 0.508235 0.76 0.863529
v 430533 27692 -650 0.508235 0.76 0.863529
v 430606 27702.2 -650 0.508235 0.76 0.863529
v 430658 27710.9 -650 0.508235 0.76 0.863529
v 430697 27717.8 -650 0.508235 0.76 0.863529
v 430816 27743 -650 0.508235 0.76 0.863529
v 430916 27763.3 -650 0.508235 0.76 0.863529
v 431006 27779 -650 0.508235 0.76 0.863529
v 431071 27789.4 -650 0.508235 0.76 0.863529
v 431112 27794.2 -650 0.508235 0.76 0.863529
v 431148 27797 -650 0.508235 0.76 0.863529
v 431180 27798.9 -650 0.508235 0.76 0.863529
v 431265 27804.7 -650 0.508235 0.76 0.863529
v 431345 27812.2 -650 0.508235 0.76 0.863529
v 429981 27515.3 -600 0.508235 0.76 0.863529
v 430347 27628.1 -600 0.508235 0.76 0.863529
v 430354 27630 -600 0.508235 0.76 0.863529
v 430375 27636.6 -600 0.508235 0.76 0.863529
v 430529 27670.1 -600 0.508235 0.76 0.863529
v 430584 27680.7 -600 0.508235 0.76 0.863529
v 430638 27689.9 -600 0.508235 0.76 0.863529
v 430691 27699 -600 0.508235 0.76 0.863529
v 430817 27724.7 -600 0.508235 0.76 0.863529
v 430916 27745 -600 0.508235 0.76 0.863529
v 431030 27763 -600 0.508235 0.76 0.863529
v 431096 27771.6 -600 0.508235 0.76 0.863529
v 431180 27780.6 -600 0.508235 0.76 0.863529
v 431279 27788.3 -600 0.508235 0.76 0.863529
v 431364 27796.9 -600 0.508235 0.76 0.863529
v 430014 27503.1 -550 0.508235 0.76 0.863529
v 430373 27613.4 -550 0.508235 0.76 0.863529
v 430382 27615.6 -550 0.508235 0.76 0.863529
v 430387 27617 -550 0.508235 0.76 0.863529
v 430533 27650.4 -550 0.508235 0.76 0.863529
v 430608 27666.1 -550 0.508235 0.76 0.863529
v 430656 27674.4 -550 0.508235 0.76 0.863529
v 430712 27686.5 -550 0.508235 0.76 0.863529
v 430801 27704.3 -550 0.508235 0.76 0.863529
v 430918 27727.2 -550 0.508235 0.76 0.863529
v 431031 27745.2 -550 0.508235 0.76 0.863529
v 431109 27755.2 -550 0.508235 0.76 0.863529
v 431181 27762.8 -550 0.508235 0.76 0.863529
v 431289 27772.6 -550 0.508235 0.76 0.863529
v 431383 27782.1 -550 0.508235 0.76 0.863529
v 430083 27488 -450 0.508235 0.76 0.863529
v 430377 27575.2 -450 0.508235 0.76 0.863529
v 430431 27590.5 -450 0.508235 0.76 0.863529
v 430431 27590.5 -450 0.508235 0.76 0.863529
v 430461 27599.2 -450 0.508235 0.76 0.863529
v 430530 27615.3 -450 0.508235 0.76 0.863529
v 430628 27635.4 -450 0.508235 0.76 0.863529
v 430713 27651.2 -450 0.508235 0.76 0.863529
v 430803 27668.9 -450 0.508235 0.76 0.863529
v 430888 27686 -450 0.508235 0.76 0.863529
v 430974 27700.8 -450 0.508235 0.76 0.863529
v 431060 27714 -450 0.508235 0.76 0.863529
v 431100 27719.8 -450 0.508235 0.76 0.863529
v 431147 27725.2 -450 0.508235 0.76 0.863529
v 431231 27734.4 -450 0.508235 0.76 0.863529
v 431309 27741.6 -450 0.508235 0.76 0.863529
v 431421 27751.9 -450 0.508235 0.76 0.863529
v 430124 27480 -400 0.508235 0.76 0.863529
v 430408 27564.5 -400 0.508235 0.76 0.863529
v 430454 27576.5 -400 0.508235 0.76 0.863529
v 430457 27577.4 -400 0.508235 0.76 0.863529
v 430531 27596.8 -400 0.508235 0.76 0.863529
v 430579 27608 -400 0.508235 0.76 0.863529
v 430654 27623.3 -400 0.508235 0.76 0.863529
v 430737 27638.4 -400 0.508235 0.76 0.863529
v 430820 27655.1 -400 0.508235 0.76 0.863529
v 430903 27670.8 -400 0.508235 0.76 0.863529
v 430986 27684.5 -400 0.508235 0.76 0.863529
v 431059 27696.5 -400 0.508235 0.76 0.863529
v 431111 27704.6 -400 0.508235 0.76 0.863529
v 431165 27710.8 -400 0.508235 0.76 0.863529
v 431255 27719.6 -400 0.508235 0.76 0.863529
v 431324 27725.2 -400 0.508235 0.76 0.863529
v 431441 27736.7 -400 0.508235 0.76 0.863529
v 430175 27473.3 -350 0.508235 0.76 0.863529
v 430438 27553.8 -350 0.508235 0.76 0.863529
v 430480 27564.8 -350 0.508235 0.76 0.863529
v 430483 27565.7 -350 0.508235 0.76 0.863529
v 430531 27578.2 -350 0.508235 0.76 0.863529
v 430590 27593.6 -350 0.508235 0.76 0.863529
v 430676 27611.3 -350 0.508235 0.76 0.863529
v 430757 27626 -350 0.508235 0.76 0.863529
v 430837 27641.2 -350 0.508235 0.76 0.863529
v 430918 27655.6 -350 0.508235 0.76 0.863529
v 430998 27668.2 -350 0.508235 0.76 0.863529
v 431056 27677.6 -350 0.508235 0.76 0.863529
v 431111 27684.9 -350 0.508235 0.76 0.863529
v 431169 27692.2 -350 0.508235 0.76 0.863529
v 431245 27699.5 -350 0.508235 0.76 0.863529
v 431355 27709.6 -350 0.508235 0.76 0.863529
v 431460 27721.4 -350 0.508235 0.76 0.863529
v 430220 27469.2 -300 0.508235 0.76 0.863529
v 430469 27543.1 -300 0.508235 0.76 0.863529
v 430515 27555.1 -300 0.508235 0.76 0.863529
v 430519 27556.2 -300 0.508235 0.76 0.863529
v 430532 27559.5 -300 0.508235 0.76 0.863529
v 430621 27583.9 -300 0.508235 0.76 0.863529
v 430699 27599.4 -300 0.508235 0.76 0.863529
v 430777 27613.5 -300 0.508235 0.76 0.863529
v 430854 27627.4 -300 0.508235 0.76 0.863529
v 430932 27640.4 -300 0.508235 0.76 0.863529
v 431011 27651.9 -300 0.508235 0.76 0.863529
v 431111 27665.9 -300 0.508235 0.76 0.863529
v 431167 27672.5 -300 0.508235 0.76 0.863529
v 431246 27679.7 -300 0.508235 0.76 0.863529
v 431369 27692.7 -300 0.508235 0.76 0.863529
v 431479 27706.2 -300 0.508235 0.76 0.863529
v 430275 27466.1 -250 0.508235 0.76 0.863529
v 430532 27540.8 -250 0.508235 0.76 0.863529
v 430547 27545.6 -250 0.508235 0.76 0.863529
v 430549 27546.1 -250 0.508235 0.76 0.863529
v 430572 27553.3 -250 0.508235 0.76 0.863529
v 430646 27572 -250 0.508235 0.76 0.863529
v 430718 27587.5 -250 0.508235 0.76 0.863529
v 430796 27601 -250 0.508235 0.76 0.863529
v 430872 27613.6 -250 0.508235 0.76 0.863529
v 430947 27625.3 -250 0.508235 0.76 0.863529
v 431023 27635.5 -250 0.508235 0.76 0.863529
v 431098 27645.3 -250 0.508235 0.76 0.863529
v 431174 27654.9 -250 0.508235 0.76 0.863529
v 431250 27663 -250 0.508235 0.76 0.863529
v 431376 27676 -250 0.508235 0.76 0.863529
v 431499 27690.6 -250 0.508235 0.76 0.863529
v 430046 27494.5 -500 0.508235 0.76 0.863529
v 430373 27596.2 -500 0.508235 0.76 0.863529
v 430404 27603.7 -500 0.508235 0.76 0.863529
v 430404 27603.7 -500 0.508235 0.76 0.863529
v 430511 27627.6 -500 0.508235 0.76 0.863529
v 430606 27646.5 -500 0.508235 0.76 0.863529
v 430643 27654.9 -500 0.508235 0.76 0.863529
v 430697 27664.9 -500 0.508235 0.76 0.863529
v 430817 27689.7 -500 0.508235 0.76 0.863529
v 430913 27708.2 -500 0.508235 0.76 0.863529
v 430996 27723.2 -500 0.508235 0.76 0.863529
v 431100 27737.9 -500 0.508235 0.76 0.863529
v 431173 27744.9 -500 0.508235 0.76 0.863529
v 431244 27752.2 -500 0.508235 0.76 0.863529
v 431303 27758 -500 0.508235 0.76 0.863529
v 431352 27761.4 -500 0.508235 0.76 0.863529
v 431402 27767.1 -500 0.508235 0.76 0.863529
v 430768 27477 100 0.508235 0.76 0.863529
v 430810 27484.9 100 0.508235 0.76 0.863529
v 430810 27484.9 100 0.508235 0.76 0.863529
v 430872 27496.4 100 0.508235 0.76 0.863529
v 430987 27515.4 100 0.508235 0.76 0.863529
v 431051 27524.3 100 0.508235 0.76 0.863529
v 431116 27531.3 100 0.508235 0.76 0.863529
v 431180 27538 100 0.508235 0.76 0.863529
v 431227 27542.8 100 0.508235 0.76 0.863529
v 431296 27547.8 100 0.508235 0.76 0.863529
v 431401 27553.3 100 0.508235 0.76 0.863529
v 431587 27560.2 100 0.508235 0.76 0.863529
v 430686 27479.6 50 0.508235 0.76 0.863529
v 430739 27490.2 50 0.508235 0.76 0.863529
v 430779 27496.7 50 0.508235 0.76 0.863529
v 430779 27496.7 50 0.508235 0.76 0.863529
v 430866 27510.7 50 0.508235 0.76 0.863529
v 431020 27532.1 50 0.508235 0.76 0.863529
v 431110 27542.1 50 0.508235 0.76 0.863529
v 431179 27548.1 50 0.508235 0.76 0.863529
v 431227 27552.9 50 0.508235 0.76 0.863529
v 431286 27557.1 50 0.508235 0.76 0.863529
v 431370 27564.1 50 0.508235 0.76 0.863529
v 431628 27588.9 50 0.508235 0.76 0.863529
v 430613 27473.6 17 0.508235 0.76 0.863529
v 430739 27500.3 17 0.508235 0.76 0.863529
v 430744 27501.2 17 0.508235 0.76 0.863529
v 430748 27501.7 17 0.508235 0.76 0.863529
v 430865 27520.8 17 0.508235 0.76 0.863529
v 430966 27535.5 17 0.508235 0.76 0.863529
v 431026 27543.1 17 0.508235 0.76 0.863529
v 431115 27551.5 17 0.508235 0.76 0.863529
v 431178 27558.1 17 0.508235 0.76 0.863529
v 431226 27563 17 0.508235 0.76 0.863529
v 431345 27574.8 17 0.508235 0.76 0.863529
v 431447 27586.4 17 0.508235 0.76 0.863529
v 431609 27603.8 17 0.508235 0.76 0.863529
v 430613 27477.5 0 0.508235 0.76 0.863529
v 430738 27504.2 0 0.508235 0.76 0.863529
v 430744 27505.1 0 0.508235 0.76 0.863529
v 430747 27505.7 0 0.508235 0.76 0.863529
v 430865 27524.7 0 0.508235 0.76 0.863529
v 430979 27541.3 0 0.508235 0.76 0.863529
v 431026 27547.1 0 0.508235 0.76 0.863529
v 431114 27555.4 0 0.508235 0.76 0.863529
v 431177 27562.1 0 0.508235 0.76 0.863529
v 431225 27566.9 0 0.508235 0.76 0.863529
v 431344 27578.8 0 0.508235 0.76 0.863529
v 431446 27590.4 0 0.508235 0.76 0.863529
v 431605 27607.3 0 0.508235 0.76 0.863529
v 430547 27470.5 -50 0.508235 0.76 0.863529
v 430595 27485.2 -50 0.508235 0.76 0.863529
v 430671 27508.5 -50 0.508235 0.76 0.863529
v 430704 27515.2 -50 0.508235 0.76 0.863529
v 430704 27515.2 -50 0.508235 0.76 0.863529
v 430736 27521.7 -50 0.508235 0.76 0.863529
v 430863 27542.2 -50 0.508235 0.76 0.863529
v 431024 27564.6 -50 0.508235 0.76 0.863529
v 431113 27572.9 -50 0.508235 0.76 0.863529
v 431176 27579.6 -50 0.508235 0.76 0.863529
v 431224 27584.4 -50 0.508235 0.76 0.863529
v 431280 27590.1 -50 0.508235 0.76 0.863529
v 431435 27606.9 -50 0.508235 0.76 0.863529
v 431583 27624.5 -50 0.508235 0.76 0.863529
v 430515 27471 -70 0.508235 0.76 0.863529
v 430594 27492.4 -70 0.508235 0.76 0.863529
v 430670 27515.7 -70 0.508235 0.76 0.863529
v 430689 27519.6 -70 0.508235 0.76 0.863529
v 430691 27520 -70 0.508235 0.76 0.863529
v 430736 27528.9 -70 0.508235 0.76 0.863529
v 430863 27549.4 -70 0.508235 0.76 0.863529
v 431024 27571.8 -70 0.508235 0.76 0.863529
v 431112 27580.1 -70 0.508235 0.76 0.863529
v 431175 27586.8 -70 0.508235 0.76 0.863529
v 431223 27591.6 -70 0.508235 0.76 0.863529
v 431279 27597.3 -70 0.508235 0.76 0.863529
v 431438 27616.3 -70 0.508235 0.76 0.863529
v 431575 27630.8 -70 0.508235 0.76 0.863529
v 430339 27466.2 -200 0.508235 0.76 0.863529
v 430529 27521.6 -200 0.508235 0.76 0.863529
v 430583 27536.9 -200 0.508235 0.76 0.863529
v 430584 27537.3 -200 0.508235 0.76 0.863529
v 430587 27537.9 -200 0.508235 0.76 0.863529
v 430640 27553.2 -200 0.508235 0.76 0.863529
v 430695 27566.6 -200 0.508235 0.76 0.863529
v 430741 27575 -200 0.508235 0.76 0.863529
v 430780 27583 -200 0.508235 0.76 0.863529
v 430838 27592.5 -200 0.508235 0.76 0.863529
v 430974 27611.8 -200 0.508235 0.76 0.863529
v 431106 27627.8 -200 0.508235 0.76 0.863529
v 431157 27634.5 -200 0.508235 0.76 0.863529
v 431254 27646.2 -200 0.508235 0.76 0.863529
v 431342 27655 -200 0.508235 0.76 0.863529
v 431519 27674.7 -200 0.508235 0.76 0.863529
v 430398 27467.7 -150 0.508235 0.76 0.863529
v 430533 27503.3 -150 0.508235 0.76 0.863529
v 430587 27518.6 -150 0.508235 0.76 0.863529
v 430627 27530.3 -150 0.508235 0.76 0.863529
v 430631 27531.4 -150 0.508235 0.76 0.863529
v 430643 27534.9 -150 0.508235 0.76 0.863529
v 430690 27547.2 -150 0.508235 0.76 0.863529
v 430727 27555 -150 0.508235 0.76 0.863529
v 430771 27563.4 -150 0.508235 0.76 0.863529
v 430842 27574.3 -150 0.508235 0.76 0.863529
v 430977 27593.5 -150 0.508235 0.76 0.863529
v 431112 27610.7 -150 0.508235 0.76 0.863529
v 431188 27620.3 -150 0.508235 0.76 0.863529
v 431303 27634.1 -150 0.508235 0.76 0.863529
v 431409 27646.5 -150 0.508235 0.76 0.863529
v 431540 27658.2 -150 0.508235 0.76 0.863529
v 430473 27470.2 -100 0.508235 0.76 0.863529
v 430533 27485.1 -100 0.508235 0.76 0.863529
v 430593 27503.2 -100 0.508235 0.76 0.863529
v 430663 27524.8 -100 0.508235 0.76 0.863529
v 430666 27525.7 -100 0.508235 0.76 0.863529
v 430669 27526.5 -100 0.508235 0.76 0.863529
v 430735 27539.7 -100 0.508235 0.76 0.863529
v 430862 27560.2 -100 0.508235 0.76 0.863529
v 431023 27582.6 -100 0.508235 0.76 0.863529
v 431111 27590.9 -100 0.508235 0.76 0.863529
v 431174 27597.6 -100 0.508235 0.76 0.863529
v 431233 27605.1 -100 0.508235 0.76 0.863529
v 431324 27615.6 -100 0.508235 0.76 0.863529
v 431436 27627 -100 0.508235 0.76 0.863529
v 431561 27641.4 -100 0.508235 0.76 0.863529
v 430523 27520.2 -50 0.823529 0.882353 0.858824
v 430583 27535.1 -50 0.823529 0.882353 0.858824
v 430643 27553.2 -50 0.823529 0.882353 0.858824
v 430713 27574.8 -50 0.823529 0.882353 0.858824
v 430716 27575.7 -50 0.823529 0.882353 0.858824
v 430719 27576.5 -50 0.823529 0.882353 0.858824
v 430785 27589.7 -50 0.823529 0.882353 0.858824
v 430912 27610.2 -50 0.823529 0.882353 0.858824
v 431073 27632.6 -50 0.823529 0.882353 0.858824
v 431161 27640.9 -50 0.823529 0.882353 0.858824
v 431224 27647.6 -50 0.823529 0.882353 0.858824
v 431283 27655.1 -50 0.823529 0.882353 0.858824
v 431374 27665.6 -50 0.823529 0.882353 0.858824
v 431486 27677 -50 0.823529 0.882353 0.858824
v 431611 27691.4 -50 0.823529 0.882353 0.858824
v 430448 27517.7 -100 0.823529 0.882353 0.858824
v 430583 27553.3 -100 0.823529 0.882353 0.858824
v 430637 27568.6 -100 0.823529 0.882353 0.858824
v 430677 27580.3 -100 0.823529 0.882353 0.858824
v 430681 27581.4 -100 0.823529 0.882353 0.858824
v 430693 27584.9 -100 0.823529 0.882353 0.858824
v 430740 27597.2 -100 0.823529 0.882353 0.858824
v 430777 27605 -100 0.823529 0.882353 0.858824
v 430821 27613.4 -100 0.823529 0.882353 0.858824
v 430892 27624.3 -100 0.823529 0.882353 0.858824
v 431027 27643.5 -100 0.823529 0.882353 0.858824
v 431162 27660.7 -100 0.823529 0.882353 0.858824
v 431238 27670.3 -100 0.823529 0.882353 0.858824
v 431353 27684.1 -100 0.823529 0.882353 0.858824
v 431459 27696.5 -100 0.823529 0.882353 0.858824
v 431590 27708.2 -100 0.823529 0.882353 0.858824
v 430389 27516.2 -150 0.823529 0.882353 0.858824
v 430579 27571.6 -150 0.823529 0.882353 0.858824
v 430633 27586.9 -150 0.823529 0.882353 0.858824
v 430634 27587.3 -150 0.823529 0.882353 0.858824
v 430637 27587.9 -150 0.823529 0.882353 0.858824
v 430690 27603.2 -150 0.823529 0.882353 0.858824
v 430745 27616.6 -150 0.823529 0.882353 0.858824
v 430791 27625 -150 0.823529 0.882353 0.858824
v 430830 27633 -150 0.823529 0.882353 0.858824
v 430888 27642.5 -150 0.823529 0.882353 0.858824
v 431024 27661.8 -150 0.823529 0.882353 0.858824
v 431156 27677.8 -150 0.823529 0.882353 0.858824
v 431207 27684.5 -150 0.823529 0.882353 0.858824
v 431304 27696.2 -150 0.823529 0.882353 0.858824
v 431392 27705 -150 0.823529 0.882353 0.858824
v 431569 27724.7 -150 0.823529 0.882353 0.858824
v 430565 27521 -20 0.823529 0.882353 0.858824
v 430644 27542.4 -20 0.823529 0.882353 0.858824
v 430720 27565.7 -20 0.823529 0.882353 0.858824
v 430739 27569.6 -20 0.823529 0.882353 0.858824
v 430741 27570 -20 0.823529 0.882353 0.858824
v 430786 27578.9 -20 0.823529 0.882353 0.858824
v 430913 27599.4 -20 0.823529 0.882353 0.858824
v 431074 27621.8 -20 0.823529 0.882353 0.858824
v 431162 27630.1 -20 0.823529 0.882353 0.858824
v 431225 27636.8 -20 0.823529 0.882353 0.858824
v 431273 27641.6 -20 0.823529 0.882353 0.858824
v 431329 27647.3 -20 0.823529 0.882353 0.858824
v 431488 27666.3 -20 0.823529 0.882353 0.858824
v 431625 27680.8 -20 0.823529 0.882353 0.858824
v 430597 27520.5 0 0.823529 0.882353 0.858824
v 430645 27535.2 0 0.823529 0.882353 0.858824
v 430721 27558.5 0 0.823529 0.882353 0.858824
v 430754 27565.2 0 0.823529 0.882353 0.858824
v 430754 27565.2 0 0.823529 0.882353 0.858824
v 430786 27571.7 0 0.823529 0.882353 0.858824
v 430913 27592.2 0 0.823529 0.882353 0.858824
v 431074 27614.6 0 0.823529 0.882353 0.858824
v 431163 27622.9 0 0.823529 0.882353 0.858824
v 431226 27629.6 0 0.823529 0.882353 0.858824
v 431274 27634.4 0 0.823529 0.882353 0.858824
v 431330 27640.1 0 0.823529 0.882353 0.858824
v 431485 27656.9 0 0.823529 0.882353 0.858824
v 431633 27674.5 0 0.823529 0.882353 0.858824
v 430663 27527.5 50 0.823529 0.882353 0.858824
v 430788 27554.2 50 0.823529 0.882353 0.858824
v 430794 27555.1 50 0.823529 0.882353 0.858824
v 430797 27555.7 50 0.823529 0.882353 0.858824
v 430915 27574.7 50 0.823529 0.882353 0.858824
v 431029 27591.3 50 0.823529 0.882353 0.858824
v 431076 27597.1 50 0.823529 0.882353 0.858824
v 431164 27605.4 50 0.823529 0.882353 0.858824
v 431227 27612.1 50 0.823529 0.882353 0.858824
v 431275 27616.9 50 0.823529 0.882353 0.858824
v 431394 27628.8 50 0.823529 0.882353 0.858824
v 431496 27640.4 50 0.823529 0.882353 0.858824
v 431655 27657.3 50 0.823529 0.882353 0.858824
v 430663 27523.6 67 0.823529 0.882353 0.858824
v 430789 27550.3 67 0.823529 0.882353 0.858824
v 430794 27551.2 67 0.823529 0.882353 0.858824
v 430798 27551.7 67 0.823529 0.882353 0.858824
v 430915 27570.8 67 0.823529 0.882353 0.858824
v 431016 27585.5 67 0.823529 0.882353 0.858824
v 431076 27593.1 67 0.823529 0.882353 0.858824
v 431165 27601.5 67 0.823529 0.882353 0.858824
v 431228 27608.1 67 0.823529 0.882353 0.858824
v 431276 27613 67 0.823529 0.882353 0.858824
v 431395 27624.8 67 0.823529 0.882353 0.858824
v 431497 27636.4 67 0.823529 0.882353 0.858824
v 431659 27653.8 67 0.823529 0.882353 0.858824
v 430736 27529.6 100 0.823529 0.882353 0.858824
v 430789 27540.2 100 0.823529 0.882353 0.858824
v 430829 27546.7 100 0.823529 0.882353 0.858824
v 430829 27546.7 100 0.823529 0.882353 0.858824
v 430916 27560.7 100 0.823529 0.882353 0.858824
v 431070 27582.1 100 0.823529 0.882353 0.858824
v 431160 27592.1 100 0.823529 0.882353 0.858824
v 431229 27598.1 100 0.823529 0.882353 0.858824
v 431277 27602.9 100 0.823529 0.882353 0.858824
v 431336 27607.1 100 0.823529 0.882353 0.858824
v 431420 27614.1 100 0.823529 0.882353 0.858824
v 431678 27638.9 100 0.823529 0.882353 0.858824
v 430818 27527 150 0.823529 0.882353 0.858824
v 430860 27534.9 150 0.823529 0.882353 0.858824
v 430860 27534.9 150 0.823529 0.882353 0.858824
v 430922 27546.4 150 0.823529 0.882353 0.858824
v 431037 27565.4 150 0.823529 0.882353 0.858824
v 431101 27574.3 150 0.823529 0.882353 0.858824
v 431166 27581.3 150 0.823529 0.882353 0.858824
v 431230 27588 150 0.823529 0.882353 0.858824
v 431277 27592.8 150 0.823529 0.882353 0.858824
v 431346 27597.8 150 0.823529 0.882353 0.858824
v 431451 27603.3 150 0.823529 0.882353 0.858824
v 431637 27610.2 150 0.823529 0.882353 0.858824
v 430096 27544.5 -450 0.823529 0.882353 0.858824
v 430423 27646.2 -450 0.823529 0.882353 0.858824
v 430454 27653.7 -450 0.823529 0.882353 0.858824
v 430454 27653.7 -450 0.823529 0.882353 0.858824
v 430561 27677.6 -450 0.823529 0.882353 0.858824
v 430656 27696.5 -450 0.823529 0.882353 0.858824
v 430693 27704.9 -450 0.823529 0.882353 0.858824
v 430747 27714.9 -450 0.823529 0.882353 0.858824
v 430867 27739.7 -450 0.823529 0.882353 0.858824
v 430963 27758.2 -450 0.823529 0.882353 0.858824
v 431046 27773.2 -450 0.823529 0.882353 0.858824
v 431150 27787.9 -450 0.823529 0.882353 0.858824
v 431223 27794.9 -450 0.823529 0.882353 0.858824
v 431294 27802.2 -450 0.823529 0.882353 0.858824
v 431353 27808 -450 0.823529 0.882353 0.858824
v 431402 27811.4 -450 0.823529 0.882353 0.858824
v 431452 27817.1 -450 0.823529 0.882353 0.858824
v 430325 27516.1 -200 0.823529 0.882353 0.858824
v 430582 27590.8 -200 0.823529 0.882353 0.858824
v 430597 27595.6 -200 0.823529 0.882353 0.858824
v 430599 27596.1 -200 0.823529 0.882353 0.858824
v 430622 27603.3 -200 0.823529 0.882353 0.858824
v 430696 27622 -200 0.823529 0.882353 0.858824
v 430768 27637.5 -200 0.823529 0.882353 0.858824
v 430846 27651 -200 0.823529 0.882353 0.858824
v 430922 27663.6 -200 0.823529 0.882353 0.858824
v 430997 27675.3 -200 0.823529 0.882353 0.858824
v 431073 27685.5 -200 0.823529 0.882353 0.858824
v 431148 27695.3 -200 0.823529 0.882353 0.858824
v 431224 27704.9 -200 0.823529 0.882353 0.858824
v 431300 27713 -200 0.823529 0.882353 0.858824
v 431426 27726 -200 0.823529 0.882353 0.858824
v 431549 27740.6 -200 0.823529 0.882353 0.858824
v 430270 27519.2 -250 0.823529 0.882353 0.858824
v 430519 27593.1 -250 0.823529 0.882353 0.858824
v 430565 27605.1 -250 0.823529 0.882353 0.858824
v 430569 27606.2 -250 0.823529 0.882353 0.858824
v 430582 27609.5 -250 0.823529 0.882353 0.858824
v 430671 27633.9 -250 0.823529 0.882353 0.858824
v 430749 27649.4 -250 0.823529 0.882353 0.858824
v 430827 27663.5 -250 0.823529 0.882353 0.858824
v 430904 27677.4 -250 0.823529 0.882353 0.858824
v 430982 27690.4 -250 0.823529 0.882353 0.858824
v 431061 27701.9 -250 0.823529 0.882353 0.858824
v 431161 27715.9 -250 0.823529 0.882353 0.858824
v 431217 27722.5 -250 0.823529 0.882353 0.858824
v 431296 27729.7 -250 0.823529 0.882353 0.858824
v 431419 27742.7 -250 0.823529 0.882353 0.858824
v 431529 27756.2 -250 0.823529 0.882353 0.858824
v 430225 27523.3 -300 0.823529 0.882353 0.858824
v 430488 27603.8 -300 0.823529 0.882353 0.858824
v 430530 27614.8 -300 0.823529 0.882353 0.858824
v 430533 27615.7 -300 0.823529 0.882353 0.858824
v 430581 27628.2 -300 0.823529 0.882353 0.858824
v 430640 27643.6 -300 0.823529 0.882353 0.858824
v 430726 27661.3 -300 0.823529 0.882353 0.858824
v 430807 27676 -300 0.823529 0.882353 0.858824
v 430887 27691.2 -300 0.823529 0.882353 0.858824
v 430968 27705.6 -300 0.823529 0.882353 0.858824
v 431048 27718.2 -300 0.823529 0.882353 0.858824
v 431106 27727.6 -300 0.823529 0.882353 0.858824
v 431161 27734.9 -300 0.823529 0.882353 0.858824
v 431219 27742.2 -300 0.823529 0.882353 0.858824
v 431295 27749.5 -300 0.823529 0.882353 0.858824
v 431405 27759.6 -300 0.823529 0.882353 0.858824
v 431510 27771.4 -300 0.823529 0.882353 0.858824
v 430174 27530 -350 0.823529 0.882353 0.858824
v 430458 27614.5 -350 0.823529 0.882353 0.858824
v 430504 27626.5 -350 0.823529 0.882353 0.858824
v 430507 27627.4 -350 0.823529 0.882353 0.858824
v 430581 27646.8 -350 0.823529 0.882353 0.858824
v 430629 27658 -350 0.823529 0.882353 0.858824
v 430704 27673.3 -350 0.823529 0.882353 0.858824
v 430787 27688.4 -350 0.823529 0.882353 0.858824
v 430870 27705.1 -350 0.823529 0.882353 0.858824
v 430953 27720.8 -350 0.823529 0.882353 0.858824
v 431036 27734.5 -350 0.823529 0.882353 0.858824
v 431109 27746.5 -350 0.823529 0.882353 0.858824
v 431161 27754.6 -350 0.823529 0.882353 0.858824
v 431215 27760.8 -350 0.823529 0.882353 0.858824
v 431305 27769.6 -350 0.823529 0.882353 0.858824
v 431374 27775.2 -350 0.823529 0.882353 0.858824
v 431491 27786.7 -350 0.823529 0.882353 0.858824
v 430133 27538 -400 0.823529 0.882353 0.858824
v 430427 27625.2 -400 0.823529 0.882353 0.858824
v 430481 27640.5 -400 0.823529 0.882353 0.858824
v 430481 27640.5 -400 0.823529 0.882353 0.858824
v 430511 27649.2 -400 0.823529 0.882353 0.858824
v 430580 27665.3 -400 0.823529 0.882353 0.858824
v 430678 27685.4 -400 0.823529 0.882353 0.858824
v 430763 27701.2 -400 0.823529 0.882353 0.858824
v 430853 27718.9 -400 0.823529 0.882353 0.858824
v 430938 27736 -400 0.823529 0.882353 0.858824
v 431024 27750.8 -400 0.823529 0.882353 0.858824
v 431110 27764 -400 0.823529 0.882353 0.858824
v 431150 27769.8 -400 0.823529 0.882353 0.858824
v 431197 27775.2 -400 0.823529 0.882353 0.858824
v 431281 27784.4 -400 0.823529 0.882353 0.858824
v 431359 27791.6 -400 0.823529 0.882353 0.858824
v 431471 27801.9 -400 0.823529 0.882353 0.858824
v 430064 27553.1 -500 0.823529 0.882353 0.858824
v 430423 27663.4 -500 0.823529 0.882353 0.858824
v 430432 27665.6 -500 0.823529 0.882353 0.858824
v 430437 27667 -500 0.823529 0.882353 0.858824
v 430583 27700.4 -500 0.823529 0.882353 0.858824
v 430658 27716.1 -500 0.823529 0.882353 0.858824
v 430706 27724.4 -500 0.823529 0.882353 0.858824
v 430762 27736.5 -500 0.823529 0.882353 0.858824
v 430851 27754.3 -500 0.823529 0.882353 0.858824
v 430968 27777.2 -500 0.823529 0.882353 0.858824
v 431081 27795.2 -500 0.823529 0.882353 0.858824
v 431159 27805.2 -500 0.823529 0.882353 0.858824
v 431231 27812.8 -500 0.823529 0.882353 0.858824
v 431339 27822.6 -500 0.823529 0.882353 0.858824
v 431433 27832.1 -500 0.823529 0.882353 0.858824
v 430031 27565.3 -550 0.823529 0.882353 0.858824
v 430397 27678.1 -550 0.823529 0.882353 0.858824
v 430404 27680 -550 0.823529 0.882353 0.858824
v 430425 27686.6 -550 0.823529 0.882353 0.858824
v 430579 27720.1 -550 0.823529 0.882353 0.858824
v 430634 27730.7 -550 0.823529 0.882353 0.858824
v 430688 27739.9 -550 0.823529 0.882353 0.858824
v 430741 27749 -550 0.823529 0.882353 0.858824
v 430867 27774.7 -550 0.823529 0.882353 0.858824
v 430966 27795 -550 0.823529 0.882353 0.858824
v 431080 27813 -550 0.823529 0.882353 0.858824
v 431146 27821.6 -550 0.823529 0.882353 0.858824
v 431230 27830.6 -550 0.823529 0.882353 0.858824
v 431329 27838.3 -550 0.823529 0.882353 0.858824
v 431414 27846.9 -550 0.823529 0.882353 0.858824
v 430050 27601.6 -600 0.823529 0.882353 0.858824
v 430293 27679.1 -600 0.823529 0.882353 0.858824
v 430364 27698.4 -600 0.823529 0.882353 0.858824
v 430364 27698.4 -600 0.823529 0.882353 0.858824
v 430390 27705.3 -600 0.823529 0.882353 0.858824
v 430459 27721.7 -600 0.823529 0.882353 0.858824
v 430525 27733 -600 0.823529 0.882353 0.858824
v 430553 27737.3 -600 0.823529 0.882353 0.858824
v 430583 27742 -600 0.823529 0.882353 0.858824
v 430656 27752.2 -600 0.823529 0.882353 0.858824
v 430708 27760.9 -600 0.823529 0.882353 0.858824
v 430747 27767.8 -600 0.823529 0.882353 0.858824
v 430866 27793 -600 0.823529 0.882353 0.858824
v 430966 27813.3 -600 0.823529 0.882353 0.858824
v 431056 27829 -600 0.823529 0.882353 0.858824
v 431121 27839.4 -600 0.823529 0.882353 0.858824
v 431162 27844.2 -600 0.823529 0.882353 0.858824
v 431198 27847 -600 0.823529 0.882353 0.858824
v 431230 27848.9 -600 0.823529 0.882353 0.858824
v 431315 27854.7 -600 0.823529 0.882353 0.858824
v 431395 27862.2 -600 0.823529 0.882353 0.858824
v 430050 27635.8 -650 0.823529 0.882353 0.858824
v 430281 27709 -650 0.823529 0.882353 0.858824
v 430318 27719.9 -650 0.823529 0.882353 0.858824
v 430322 27720.9 -650 0.823529 0.882353 0.858824
v 430338 27725.7 -650 0.823529 0.882353 0.858824
v 430380 27734.8 -650 0.823529 0.882353 0.858824
v 430417 27741.1 -650 0.823529 0.882353 0.858824
v 430453 27745.5 -650 0.823529 0.882353 0.858824
v 430485 27749.4 -650 0.823529 0.882353 0.858824
v 430549 27756.6 -650 0.823529 0.882353 0.858824
v 430569 27759.1 -650 0.823529 0.882353 0.858824
v 430590 27761.6 -650 0.823529 0.882353 0.858824
v 430656 27770.5 -650 0.823529 0.882353 0.858824
v 430695 27776.5 -650 0.823529 0.882353 0.858824
v 430744 27785.6 -650 0.823529 0.882353 0.858824
v 430866 27811.3 -650 0.823529 0.882353 0.858824
v 430965 27831.6 -650 0.823529 0.882353 0.858824
v 431036 27844.7 -650 0.823529 0.882353 0.858824
v 431101 27854.7 -650 0.823529 0.882353 0.858824
v 431143 27860.1 -650 0.823529 0.882353 0.858824
v 431180 27864 -650 0.823529 0.882353 0.858824
v 431229 27867.2 -650 0.823529 0.882353 0.858824
v 431310 27872.1 -650 0.823529 0.882353 0.858824
v 431375 27877.7 -650 0.823529 0.882353 0.858824
v 430050 27670 -700 0.823529 0.882353 0.858824
v 430271 27740.8 -700 0.823529 0.882353 0.858824
v 430271 27740.8 -700 0.823529 0.882353 0.858824
v 430299 27747.1 -700 0.823529 0.882353 0.858824
v 430337 27753.1 -700 0.823529 0.882353 0.858824
v 430447 27764.6 -700 0.823529 0.882353 0.858824
v 430503 27770.3 -700 0.823529 0.882353 0.858824
v 430570 27777.8 -700 0.823529 0.882353 0.858824
v 430630 27784.7 -700 0.823529 0.882353 0.858824
v 430674 27791 -700 0.823529 0.882353 0.858824
v 430729 27801.2 -700 0.823529 0.882353 0.858824
v 430840 27825.5 -700 0.823529 0.882353 0.858824
v 430940 27845.8 -700 0.823529 0.882353 0.858824
v 431044 27863 -700 0.823529 0.882353 0.858824
v 431120 27874.4 -700 0.823529 0.882353 0.858824
v 431203 27881.4 -700 0.823529 0.882353 0.858824
v 431271 27885.5 -700 0.823529 0.882353 0.858824
v 431357 27892.4 -700 0.823529 0.882353 0.858824
v 430050 27702.5 -750 0.823529 0.882353 0.858824
v 430160 27739.7 -750 0.823529 0.882353 0.858824
v 430243 27755.5 -750 0.823529 0.882353 0.858824
v 430244 27755.7 -750 0.823529 0.882353 0.858824
v 430276 27762.5 -750 0.823529 0.882353 0.858824
v 430333 27772.4 -750 0.823529 0.882353 0.858824
v 430393 27780.4 -750 0.823529 0.882353 0.858824
v 430465 27787.1 -750 0.823529 0.882353 0.858824
v 430578 27795.8 -750 0.823529 0.882353 0.858824
v 430653 27805 -750 0.823529 0.882353 0.858824
v 430697 27811.3 -750 0.823529 0.882353 0.858824
v 430746 27819.4 -750 0.823529 0.882353 0.858824
v 430863 27845.8 -750 0.823529 0.882353 0.858824
v 430963 27866.1 -750 0.823529 0.882353 0.858824
v 431077 27884.1 -750 0.823529 0.882353 0.858824
v 431137 27892.4 -750 0.823529 0.882353 0.858824
v 431203 27899.5 -750 0.823529 0.882353 0.858824
v 431276 27904.6 -750 0.823529 0.882353 0.858824
v 431335 27909.1 -750 0.823529 0.882353 0.858824
v 430050 27741.3 -800 0.823529 0.882353 0.858824
v 430183 27766.1 -800 0.823529 0.882353 0.858824
v 430295 27783.5 -800 0.823529 0.882353 0.858824
v 430295 27783.5 -800 0.823529 0.882353 0.858824
v 430370 27794.8 -800 0.823529 0.882353 0.858824
v 430429 27802 -800 0.823529 0.882353 0.858824
v 430481 27807.1 -800 0.823529 0.882353 0.858824
v 430570 27813.4 -800 0.823529 0.882353 0.858824
v 430578 27814.5 -800 0.823529 0.882353 0.858824
v 430653 27822.3 -800 0.823529 0.882353 0.858824
v 430697 27828.6 -800 0.823529 0.882353 0.858824
v 430750 27838.4 -800 0.823529 0.882353 0.858824
v 430863 27863.1 -800 0.823529 0.882353 0.858824
v 430963 27883.4 -800 0.823529 0.882353 0.858824
v 431076 27901.4 -800 0.823529 0.882353 0.858824
v 431150 27911.7 -800 0.823529 0.882353 0.858824
v 431226 27919 -800 0.823529 0.882353 0.858824
v 431278 27922.2 -800 0.823529 0.882353 0.858824
v 431316 27924.2 -800 0.823529 0.882353 0.858824
v 430050 27754.1 -850 0.823529 0.882353 0.858824
v 430092 27764.7 -850 0.823529 0.882353 0.858824
v 430311 27802.8 -850 0.823529 0.882353 0.858824
v 430355 27808.7 -850 0.823529 0.882353 0.858824
v 430358 27809.1 -850 0.823529 0.882353 0.858824
v 430448 27819.8 -850 0.823529 0.882353 0.858824
v 430578 27833.3 -850 0.823529 0.882353 0.858824
v 430653 27840.6 -850 0.823529 0.882353 0.858824
v 430681 27844.4 -850 0.823529 0.882353 0.858824
v 430709 27848.2 -850 0.823529 0.882353 0.858824
v 430738 27853.7 -850 0.823529 0.882353 0.858824
v 430863 27881.4 -850 0.823529 0.882353 0.858824
v 430963 27901.7 -850 0.823529 0.882353 0.858824
v 431066 27919.2 -850 0.823529 0.882353 0.858824
v 431112 27926.2 -850 0.823529 0.882353 0.858824
v 431151 27931.5 -850 0.823529 0.882353 0.858824
v 431193 27936.1 -850 0.823529 0.882353 0.858824
v 431226 27937.3 -850 0.823529 0.882353 0.858824
v 431297 27939.7 -850 0.823529 0.882353 0.858824
v 430050 27772.3 -900 0.823529 0.882353 0.858824
v 430168 27796.7 -900 0.823529 0.882353 0.858824
v 430348 27823.3 -900 0.823529 0.882353 0.858824
v 430414 27831.7 -900 0.823529 0.882353 0.858824
v 430414 27831.7 -900 0.823529 0.882353 0.858824
v 430510 27842.9 -900 0.823529 0.882353 0.858824
v 430581 27850.3 -900 0.823529 0.882353 0.858824
v 430652 27859.3 -900 0.823529 0.882353 0.858824
v 430696 27865.6 -900 0.823529 0.882353 0.858824
v 430732 27871.4 -900 0.823529 0.882353 0.858824
v 430862 27900.1 -900 0.823529 0.882353 0.858824
v 430962 27920.4 -900 0.823529 0.882353 0.858824
v 431075 27938.4 -900 0.823529 0.882353 0.858824
v 431130 27947 -900 0.823529 0.882353 0.858824
v 431161 27951.4 -900 0.823529 0.882353 0.858824
v 431192 27954.5 -900 0.823529 0.882353 0.858824
v 431226 27955.9 -900 0.823529 0.882353 0.858824
v 431278 27954.3 -900 0.823529 0.882353 0.858824
v 430000 27722.3 -950 0.508235 0.76 0.863529
v 430118 27746.7 -950 0.508235 0.76 0.863529
v 430298 27773.3 -950 0.508235 0.76 0.863529
v 430364 27781.7 -950 0.508235 0.76 0.863529
v 430364 27781.7 -950 0.508235 0.76 0.863529
v 430460 27792.9 -950 0.508235 0.76 0.863529
v 430531 27800.3 -950 0.508235 0.76 0.863529
v 430602 27809.3 -950 0.508235